# AST/ASF file generated using VICON BodyLanguage
# -----------------------------------------------
:version 1.10
:name VICON
:units
  mass 1.0
  length 0.45
  angle deg
:documentation
   .ast/.asf automatically generated from VICON data using
   VICON BodyBuilder and BodyLanguage model FoxedUp or BRILLIANT.MOD
:root
   order TX TY TZ RX RY RZ
   axis XYZ
   position 0 0 0  
   orientation 0 0 0 
:bonedata
  begin
     id 1 
     name lhipjoint
     direction 0.650112 -0.723553 0.232005 
     length 2.45805 
     axis 0 0 0  XYZ
  end
  begin
     id 2 
     name lfemur
     direction 0.34202 -0.939693 0  
     length 7.00073  
     axis 0 0 20  XYZ
    dof rx ry rz
    limits (-160.0 20.0)
           (-70.0 70.0)
           (-60.0 70.0)
  end
  begin
     id 3 
     name ltibia
     direction 0.34202 -0.939693 0   
     length 7.8748   
     axis 0 0 20   XYZ
    dof rx
    limits (-10.0 170.0)
  end
  begin
     id 4 
     name lfoot
     direction 0.0542825 -0.14914 0.987325   
     length 1.75978   
     axis -90 7.62852e-016 20   XYZ
    dof rx rz
    limits (-45.0 90.0)
           (-70.0 20.0)
  end
  begin
     id 5 
     name ltoes
     direction 1.53509e-011 -4.21906e-011 1   
     length 0.893912   
     axis -90 7.62852e-016 20   XYZ
    dof rx
    limits (-90.0 20.0)
  end
  begin
     id 6 
     name rhipjoint
     direction -0.637897 -0.733345 0.235145   
     length 2.42522  
     axis 0 0 0  XYZ 
  end
  begin
     id 7 
     name rfemur
     direction -0.34202 -0.939693 0   
     length 7.02549   
     axis 0 0 -20   XYZ
    dof rx ry rz
    limits (-160.0 20.0)
           (-70.0 70.0)
           (-70.0 60.0)
  end
  begin
     id 8 
     name rtibia
     direction -0.34202 -0.939693 0   
     length 7.71512   
     axis 0 0 -20   XYZ
    dof rx
    limits (-10.0 170.0)
 end
 begin
     id 9 
     name rfoot
     direction -0.0822618 -0.226012 0.970645   
     length 1.90014  
     axis -90 -7.62852e-016 -20   XYZ
    dof rx rz
    limits (-45.0 90.0)
           (-20.0 70.0)
  end
  begin
     id 10 
     name rtoes
     direction -1.53542e-011 -4.21872e-011 1   
     length 0.957341   
     axis -90 -7.62852e-016 -20   XYZ
    dof rx
    limits (-90.0 20.0)
  end
  begin
     id 11 
     name lowerback
     direction -0.0022947 0.999774 -0.0211557   
     length 1.89909   
     axis 0 0 0   XYZ
    dof rx ry rz
    limits (-20.0 45.0)
           (-30.0 30.0)
           (-30.0 30.0)
  end
  begin
     id 12 
     name upperback
     direction 0.0107737 0.998635 0.0511027   
     length 1.8853   
     axis 0 0 0   XYZ
    dof rx ry rz
    limits (-20.0 45.0)
           (-30.0 30.0)
           (-30.0 30.0)
  end
  begin
     id 13 
     name thorax
     direction 0.011824 0.998136 0.0598754   
     length 1.88911   
     axis 0 0 0   XYZ
    dof rx ry rz
    limits (-20.0 45.0)
           (-30.0 30.0)
           (-30.0 30.0)
  end
  begin
     id 14 
     name lowerneck
     direction -0.0685355 0.990319 0.120714   
     length 1.91222   
     axis 0 0 0   XYZ
    dof rx ry rz
    limits (-20.0 45.0)
           (-30.0 30.0)
           (-30.0 30.0)
  end
  begin
     id 15 
     name upperneck
     direction 0.0886204 0.955665 -0.280805   
     length 1.92526   
     axis 0 0 0   XYZ
    dof rx ry rz
    limits (-20.0 45.0)
           (-30.0 30.0)
           (-30.0 30.0)
  end
  begin
     id 16
     name head
     direction 0.0233423 0.993502 -0.111393  
     length 1.96056  
     axis 0 0 0   XYZ
    dof rx ry rz
    limits (-20.0 45.0)
           (-30.0 30.0)
           (-30.0 30.0)
  end
  begin
     id 17 
     name lclavicle
     direction 0.941873 0.32922 0.0670041  
     length 3.31705  
     axis 0 0 0   XYZ
    dof ry rz
    limits (-20.0 10.0)
           (0.0 20.0)
  end
  begin
     id 18 
     name lhumerus
     direction 1 -4.4898e-011 3.38707e-028   
     length 5.29277   
     axis 180 -30 -90   XYZ
    dof rx ry rz
    limits (-60.0 90.0)
           (-90.0 90.0)
           (-90.0 90.0)
  end
  begin
     id 19
     name lradius
     direction 1 -4.48952e-011 1.63213e-028   
     length 2.85226   
     axis 180 -30 -90   XYZ
    dof rx
    limits (-10.0 170.0)
  end
  begin
     id 20
     name lwrist
     direction 1 -4.49001e-011 1.27856e-027   
     length 1.42613   
     axis -1.61767e-015 90 90   XYZ
    dof ry
    limits (-180.0 0.0)
 end
  begin
     id 21 
     name lhand
     direction 1 -4.48976e-011 2.55931e-027   
     length 0.602097   
     axis -1.63363e-015 90 90   XYZ
    dof rx rz
    limits (-90.0 90.0)
           (-45.0 45.0)
  end
  begin
     id 22 
     name lfingers
     direction 1 -4.48986e-011 5.11684e-027   
     length 0.485426   
     axis -3.26723e-015 90 90   XYZ
    dof rx
    limits (0.0 90.0)
  end
  begin
     id 23
     name lthumb
     direction 0.707107 -6.34915e-011 0.707107   
     length 0.696978   
     axis -90 45 -2.25915e-014   XYZ
    dof rx rz
    limits (-45.0 45.0)
           (-45.0 45.0)
  end
  begin
     id 24 
     name rclavicle
     direction -0.939974 0.327078 0.0973096   
     length 3.10337  
     axis 0 0 0   XYZ 
    dof ry rz
    limits (-10.0 20.0)
           (-20.0 0.0)
  end
  begin
     id 25 
     name rhumerus
     direction -1 -4.48975e-011 1.83745e-027  
     length 5.13304   
     axis 180 30 90   XYZ
    dof rx ry rz
    limits (-90.0 60.0)
           (-90.0 90.0)
           (-90.0 90.0)
  end
  begin
     id 26 
     name rradius
     direction -1 -4.48977e-011 7.1775e-029   
     length 2.74305   
     axis 180 30 90   XYZ
    dof rx
    limits (-10.0 170.0)
  end
  begin
     id 27 
     name rwrist
     direction -1 -4.48977e-011 1.27963e-027   
     length 1.37152   
     axis -1.61767e-015 -90 -90   XYZ
    dof ry
    limits (-180.0 0.0)
  end
  begin
     id 28
     name rhand
     direction -1 -4.4888e-011 2.56782e-027   
     length 0.767976   
     axis -1.63363e-015 -90 -90   XYZ
    dof rx rz
    limits (-90.0 90.0)
           (-45.0 45.0)
  end
  begin
     id 29
     name rfingers
     direction -1 -4.48947e-011 5.12384e-027   
     length 0.619162   
     axis -3.26723e-015 -90 -90   XYZ
    dof rx
    limits (0.0 90.0)
  end
  begin
     id 30
     name rthumb
     direction -0.707107 -6.34857e-011 0.707107   
     length 0.888997   
     axis -90 -45 2.25915e-014   XYZ
    dof rx rz
    limits (-45.0 45.0)
           (-45.0 45.0)
  end
:hierarchy
  begin
    root lhipjoint rhipjoint lowerback
    lhipjoint lfemur
    lfemur ltibia
    ltibia lfoot
    lfoot ltoes
    rhipjoint rfemur
    rfemur rtibia
    rtibia rfoot
    rfoot rtoes
    lowerback upperback
    upperback thorax
    thorax lowerneck lclavicle rclavicle
    lowerneck upperneck
    upperneck head
    lclavicle lhumerus
    lhumerus lradius
    lradius lwrist
    lwrist lhand lthumb
    lhand lfingers
    rclavicle rhumerus
    rhumerus rradius
    rradius rwrist
    rwrist rhand rthumb
    rhand rfingers
  end

#!OML:ASF F:\VICON\USERDATA\INSTALL\rory3\rory3.ASF
:FULLY-SPECIFIED
:DEGREES
302
root -0.106307 17.029 0.24817 0.055037 1.83693 -0.782729
lowerback -0.326426 -1.49453 -2.48177
upperback -8.16352 -2.29021 -2.52231
thorax -8.39259 -1.05923 -1.11249
lowerneck -14.8385 -14.0665 -17.0482
upperneck 12.7781 -17.7173 12.2652
head 9.05756 -8.23761 4.31354
rclavicle -6.75868e-015 -1.03368e-014
rhumerus 45.404 -50.5509 -28.8334
rradius 37.7197
rwrist 17.4169
rhand -34.9918 15.2361
rfingers 7.12502
rthumb -8.13687 -14.5872
lclavicle -6.75868e-015 -1.03368e-014
lhumerus 57.6651 39.5066 39.0265
lradius 31.6193
lwrist 5.41206
lhand -24.1018 21.7549
lfingers 7.12502
lthumb 2.37906 51.7213
rfemur -2.31097 7.67826 21.4461
rtibia 24.6796
rfoot -20.5236 -12.0373
rtoes -10.996
lfemur -6.11436 -9.51205 -17.2445
ltibia 28.7519
lfoot -21.3871 1.23113
ltoes -16.2039
303
root -0.120478 17.0293 0.264097 0.0605765 2.09984 -0.830224
lowerback -0.493111 -1.60149 -2.45047
upperback -8.39703 -2.44735 -2.71304
thorax -8.56457 -1.1457 -1.32442
lowerneck -14.9283 -14.0397 -17.0482
upperneck 12.8081 -17.6739 12.287
head 9.07911 -8.21153 4.32406
rclavicle 1.86858e-014 3.10104e-014
rhumerus 49.4231 -51.1837 -31.2487
rradius 33.1081
rwrist 21.1111
rhand -34.8217 16.1014
rfingers 7.12502
rthumb -7.97273 -13.7282
lclavicle 1.86858e-014 3.10104e-014
lhumerus 63.2301 39.9283 43.2709
lradius 26.2422
lwrist 0.470076
lhand -23.3375 21.1612
lfingers 7.12502
lthumb 3.11716 51.1182
rfemur -2.08768 7.72201 21.6185
rtibia 24.4382
rfoot -20.4614 -12.3139
rtoes -11.5599
lfemur -6.00987 -9.65904 -17.1206
ltibia 28.556
lfoot -21.3091 1.05534
ltoes -15.5519
304
root -0.137056 17.0301 0.279984 -0.00541131 2.34978 -0.905457
lowerback -0.611957 -1.75393 -2.50221
upperback -8.67474 -2.66737 -2.81294
thorax -8.80822 -1.25262 -1.38894
lowerneck -14.9014 -13.948 -17.2136
upperneck 12.9609 -17.5395 12.3174
head 9.1254 -8.15523 4.38337
rclavicle 2.5842e-014 1.35174e-014
rhumerus 53.9535 -51.7211 -34.4538
rradius 28.7567
rwrist 25.7388
rhand -34.0159 17.126
rfingers 7.12502
rthumb -7.19489 -12.7317
lclavicle 2.5842e-014 1.35174e-014
lhumerus 70.4899 40.7285 50.434
lradius 20.8772
lwrist -7.59238
lhand -22.2992 20.0508
lfingers 7.12502
lthumb 4.11985 49.9907
rfemur -1.80102 7.74832 21.8386
rtibia 24.2265
rfoot -20.3646 -12.6733
rtoes -12.3007
lfemur -5.86508 -9.73691 -16.9674
ltibia 28.4373
lfoot -21.2852 0.929024
ltoes -15.6335
305
root -0.151487 17.0303 0.295469 -0.0646744 2.55776 -0.860063
lowerback -0.752453 -1.84967 -2.63512
upperback -8.87457 -2.81423 -2.96576
thorax -8.95303 -1.32062 -1.47055
lowerneck -15.0221 -13.9415 -17.4681
upperneck 13.1592 -17.5028 12.4426
head 9.24591 -8.13299 4.4599
rclavicle -9.93923e-015 -5.08889e-014
rhumerus 60.1284 -52.8291 -39.8355
rradius 24.679
rwrist 32.45
rhand -33.0953 17.7952
rfingers 7.12502
rthumb -6.30623 -12.0909
lclavicle -9.93923e-015 -5.08889e-014
lhumerus 81.8898 41.3372 64.3578
lradius 16.4893
lwrist -21.6042
lhand -21.0385 18.5927
lfingers 7.12502
lthumb 5.33716 48.5055
rfemur -1.52892 7.76518 21.9053
rtibia 24.0294
rfoot -20.3524 -12.8425
rtoes -11.8087
lfemur -5.76089 -9.8217 -16.9631
ltibia 28.4072
lfoot -21.2945 0.787854
ltoes -15.5305
306
root -0.163758 17.0286 0.311542 -0.150454 2.71867 -0.937306
lowerback -0.961466 -1.92008 -2.59238
upperback -8.98746 -2.91208 -3.11619
thorax -8.96847 -1.37931 -1.65345
lowerneck -15.1468 -13.9458 -17.6734
upperneck 13.2342 -17.4995 12.6727
head 9.33694 -8.11532 4.5601
rclavicle -7.95139e-015 -2.06736e-014
rhumerus 70.1206 -54.382 -50.1003
rradius 20.9774
rwrist 42.8085
rhand -32.3502 18.3099
rfingers 7.12502
rthumb -5.58688 -11.5965
lclavicle -7.95139e-015 -2.06736e-014
lhumerus 94.5117 39.3483 81.5189
lradius 13.8989
lwrist -39.6783
lhand -20.1817 17.786
lfingers 7.12502
lthumb 6.16437 47.6763
rfemur -1.2682 7.69134 22.0833
rtibia 23.8728
rfoot -20.4188 -12.9432
rtoes -11.4147
lfemur -5.63966 -9.83874 -16.8348
ltibia 28.4439
lfoot -21.3576 0.736275
ltoes -16.3744
307
root -0.17785 17.0247 0.324982 -0.229836 2.8451 -1.21502
lowerback -1.19297 -1.97072 -2.34707
upperback -9.09452 -2.97124 -3.22373
thorax -8.97114 -1.43307 -1.90728
lowerneck -15.0091 -13.9341 -17.8846
upperneck 13.0602 -17.4936 12.9192
head 9.29873 -8.10879 4.68337
rclavicle 4.37326e-015 3.18055e-015
rhumerus 82.498 -55.0243 -63.6214
rradius 18.2143
rwrist 55.2228
rhand -31.7445 18.9643
rfingers 7.12502
rthumb -5.00207 -10.9567
lclavicle 4.37326e-015 3.18055e-015
lhumerus 104.408 34.7763 97.1267
lradius 13.3647
lwrist -58.9124
lhand -19.4417 17.0244
lfingers 7.12502
lthumb 6.87877 46.8926
rfemur -1.09588 7.59003 22.4792
rtibia 23.8086
rfoot -20.3872 -13.0465
rtoes -11.2746
lfemur -5.57868 -9.77946 -16.4559
ltibia 28.5253
lfoot -21.4302 0.452892
ltoes -15.9498
308
root -0.193374 17.0207 0.335776 -0.25708 2.96513 -1.33605
lowerback -1.46364 -2.00932 -2.32749
upperback -9.18749 -3.02161 -3.34859
thorax -8.92606 -1.46616 -2.05617
lowerneck -14.6298 -13.9474 -18.0124
upperneck 12.5466 -17.5215 13.0601
head 9.08851 -8.13533 4.7672
rclavicle 2.0276e-014 3.18055e-014
rhumerus 95.9215 -53.9 -78.8871
rradius 16.5362
rwrist 68.8594
rhand -31.213 19.8112
rfingers 7.12502
rthumb -4.48883 -10.1212
lclavicle 2.0276e-014 3.18055e-014
lhumerus 111.515 28.7518 111.055
lradius 14.2124
lwrist -78.1784
lhand -19.2484 15.6265
lfingers 7.12502
lthumb 7.0654 45.4886
rfemur -1.02925 7.52415 22.6957
rtibia 23.8027
rfoot -20.3908 -13.0949
rtoes -11.0155
lfemur -5.62525 -9.74367 -16.2365
ltibia 28.674
lfoot -21.5413 0.184145
ltoes -15.4802
309
root -0.208793 17.0143 0.345454 -0.332584 3.09029 -1.29246
lowerback -1.65496 -2.04378 -2.50886
upperback -9.27701 -3.07954 -3.51146
thorax -8.91736 -1.4887 -2.13098
lowerneck -14.2589 -13.9574 -17.9959
upperneck 12.0768 -17.5343 12.9804
head 8.8564 -8.16581 4.75888
rclavicle 2.54444e-014 -7.95139e-015
rhumerus 106.627 -51.188 -91.6523
rradius 15.9135
rwrist 81.9714
rhand -30.8617 20.6511
rfingers 7.12502
rthumb -4.14959 -9.28827
lclavicle 2.54444e-014 -7.95139e-015
lhumerus 116.375 22.071 123.672
lradius 15.0219
lwrist -96.421
lhand -21.1498 14.427
lfingers 7.12502
lthumb 5.22968 44.3425
rfemur -0.942697 7.40673 22.7327
rtibia 23.8909
rfoot -20.4476 -13.1665
rtoes -10.9507
lfemur -5.62921 -9.74164 -16.2215
ltibia 28.857
lfoot -21.6999 -0.0141018
ltoes -15.1647
310
root -0.225449 17.0068 0.353803 -0.409312 3.20216 -1.36329
lowerback -1.81884 -2.08176 -2.59904
upperback -9.40426 -3.13768 -3.61277
thorax -8.96747 -1.51515 -2.19055
lowerneck -14.2155 -13.9467 -18.1947
upperneck 12.2068 -17.498 12.9665
head 8.90409 -8.16057 4.79011
rclavicle -8.34896e-015 1.27222e-014
rhumerus 112.482 -48.422 -99.0845
rradius 15.8977
rwrist 92.3729
rhand -31.053 20.7281
rfingers 7.12502
rthumb -4.33431 -9.20758
lclavicle -8.34896e-015 1.27222e-014
lhumerus 116.436 20.0322 125.795
lradius 15.2225
lwrist -102.784
lhand -23.094 15.3769
lfingers 7.12502
lthumb 3.35229 45.3303
rfemur -0.923344 7.33048 22.9024
rtibia 24.0854
rfoot -20.5424 -13.2761
rtoes -10.8546
lfemur -5.65555 -9.63938 -16.0582
ltibia 29.0428
lfoot -21.776 -0.165751
ltoes -15.7079
311
root -0.240714 16.9975 0.362203 -0.499995 3.30606 -1.39875
lowerback -2.0871 -2.10244 -2.66947
upperback -9.47324 -3.16633 -3.76778
thorax -8.89539 -1.53219 -2.32369
lowerneck -14.0731 -13.9164 -18.4803
upperneck 12.3017 -17.466 13.1206
head 8.94985 -8.15295 4.89531
rclavicle 2.3059e-014 7.95139e-015
rhumerus 114.822 -46.7957 -102.147
rradius 15.9828
rwrist 99.3283
rhand -31.6121 20.0951
rfingers 7.12502
rthumb -4.87418 -9.82885
lclavicle 2.3059e-014 7.95139e-015
lhumerus 115.736 19.0296 125.917
lradius 15.0193
lwrist -104.871
lhand -25.043 15.9144
lfingers 7.12502
lthumb 1.47004 45.8891
rfemur -0.915908 7.21503 23.0173
rtibia 24.345
rfoot -20.7143 -13.2799
rtoes -10.7828
lfemur -5.66005 -9.52129 -15.9418
ltibia 29.2441
lfoot -21.9446 -0.246891
ltoes -16.6789
312
root -0.252627 16.9856 0.371958 -0.686233 3.39546 -1.39335
lowerback -2.39874 -2.06972 -2.67623
upperback -9.4315 -3.11865 -4.01773
thorax -8.68236 -1.52193 -2.59874
lowerneck -13.9007 -13.9531 -18.6004
upperneck 12.3303 -17.5271 13.1073
head 8.9494 -8.19622 4.90459
rclavicle -8.74653e-015 1.59028e-014
rhumerus 114.602 -46.7876 -101.473
rradius 15.804
rwrist 102.084
rhand -32.2253 19.4178
rfingers 7.12502
rthumb -5.46622 -10.4917
lclavicle -8.74653e-015 1.59028e-014
lhumerus 111.892 21.749 117.053
lradius 14.3878
lwrist -95.4517
lhand -25.4293 17.0403
lfingers 7.12502
lthumb 1.09692 47.0173
rfemur -0.824462 6.99174 23.0621
rtibia 24.6466
rfoot -20.9478 -13.1549
rtoes -10.4969
lfemur -5.55727 -9.40964 -15.9065
ltibia 29.4872
lfoot -22.2136 -0.185696
ltoes -17.7921
